<mxfile host="app.diagrams.net" modified="2021-10-25T18:31:14.451Z" agent="5.0 (Windows NT 10.0; Win64; x64) AppleWebKit/537.36 (KHTML, like Gecko) Chrome/95.0.4638.54 Safari/537.36" etag="nCB-JnU6JM5tkSTdJqod" version="15.5.9" type="github">
  <diagram name="Page-1" id="6133507b-19e7-1e82-6fc7-422aa6c4b21f">
    <mxGraphModel dx="1422" dy="762" grid="1" gridSize="10" guides="1" tooltips="1" connect="1" arrows="1" fold="1" page="1" pageScale="1" pageWidth="1100" pageHeight="850" background="none" math="0" shadow="0">
      <root>
        <mxCell id="0" />
        <mxCell id="1" parent="0" />
        <mxCell id="78961159f06e98e8-17" value="University&amp;nbsp;" style="swimlane;html=1;fontStyle=1;align=center;verticalAlign=top;childLayout=stackLayout;horizontal=1;startSize=26;horizontalStack=0;resizeParent=1;resizeLast=0;collapsible=1;marginBottom=0;swimlaneFillColor=#ffffff;rounded=0;shadow=0;comic=0;labelBackgroundColor=none;strokeWidth=1;fillColor=none;fontFamily=Verdana;fontSize=12" parent="1" vertex="1">
          <mxGeometry x="640" y="40" width="160" height="60" as="geometry" />
        </mxCell>
        <mxCell id="78961159f06e98e8-23" value="+ name: String" style="text;html=1;strokeColor=none;fillColor=none;align=left;verticalAlign=top;spacingLeft=4;spacingRight=4;whiteSpace=wrap;overflow=hidden;rotatable=0;points=[[0,0.5],[1,0.5]];portConstraint=eastwest;" parent="78961159f06e98e8-17" vertex="1">
          <mxGeometry y="26" width="160" height="26" as="geometry" />
        </mxCell>
        <mxCell id="gcUvP2jghbVTYusqyTfN-41" value="" style="endArrow=diamondThin;endFill=1;endSize=24;html=1;rounded=0;edgeStyle=elbowEdgeStyle;elbow=vertical;entryX=0.5;entryY=1;entryDx=0;entryDy=0;" parent="1" source="qH-ci81VB0g3E8EAZ0NB-1" target="78961159f06e98e8-17" edge="1">
          <mxGeometry width="160" relative="1" as="geometry">
            <mxPoint x="715" y="141" as="sourcePoint" />
            <mxPoint x="805" y="400" as="targetPoint" />
          </mxGeometry>
        </mxCell>
        <mxCell id="gcUvP2jghbVTYusqyTfN-112" value="1 ... *" style="edgeLabel;html=1;align=center;verticalAlign=middle;resizable=0;points=[];" parent="gcUvP2jghbVTYusqyTfN-41" vertex="1" connectable="0">
          <mxGeometry x="-0.52" y="2" relative="1" as="geometry">
            <mxPoint x="16" y="6" as="offset" />
          </mxGeometry>
        </mxCell>
        <mxCell id="gcUvP2jghbVTYusqyTfN-43" value="Department" style="swimlane;html=1;fontStyle=1;align=center;verticalAlign=top;childLayout=stackLayout;horizontal=1;startSize=26;horizontalStack=0;resizeParent=1;resizeLast=0;collapsible=1;marginBottom=0;swimlaneFillColor=#ffffff;rounded=0;shadow=0;comic=0;labelBackgroundColor=none;strokeWidth=1;fillColor=none;fontFamily=Verdana;fontSize=12" parent="1" vertex="1">
          <mxGeometry x="640" y="290" width="160" height="56" as="geometry" />
        </mxCell>
        <mxCell id="gcUvP2jghbVTYusqyTfN-44" value="+ name: String" style="text;html=1;strokeColor=none;fillColor=none;align=left;verticalAlign=top;spacingLeft=4;spacingRight=4;whiteSpace=wrap;overflow=hidden;rotatable=0;points=[[0,0.5],[1,0.5]];portConstraint=eastwest;" parent="gcUvP2jghbVTYusqyTfN-43" vertex="1">
          <mxGeometry y="26" width="160" height="26" as="geometry" />
        </mxCell>
        <mxCell id="gcUvP2jghbVTYusqyTfN-50" value="Room" style="swimlane;html=1;fontStyle=1;align=center;verticalAlign=top;childLayout=stackLayout;horizontal=1;startSize=26;horizontalStack=0;resizeParent=1;resizeLast=0;collapsible=1;marginBottom=0;swimlaneFillColor=#ffffff;rounded=0;shadow=0;comic=0;labelBackgroundColor=none;strokeWidth=1;fillColor=none;fontFamily=Verdana;fontSize=12" parent="1" vertex="1">
          <mxGeometry x="640" y="420" width="160" height="60" as="geometry" />
        </mxCell>
        <mxCell id="gcUvP2jghbVTYusqyTfN-51" value="+ roomID: int" style="text;html=1;strokeColor=none;fillColor=none;align=left;verticalAlign=top;spacingLeft=4;spacingRight=4;whiteSpace=wrap;overflow=hidden;rotatable=0;points=[[0,0.5],[1,0.5]];portConstraint=eastwest;" parent="gcUvP2jghbVTYusqyTfN-50" vertex="1">
          <mxGeometry y="26" width="160" height="26" as="geometry" />
        </mxCell>
        <mxCell id="gcUvP2jghbVTYusqyTfN-53" value="Classroom" style="swimlane;html=1;fontStyle=1;align=center;verticalAlign=top;childLayout=stackLayout;horizontal=1;startSize=26;horizontalStack=0;resizeParent=1;resizeLast=0;collapsible=1;marginBottom=0;swimlaneFillColor=#ffffff;rounded=0;shadow=0;comic=0;labelBackgroundColor=none;strokeWidth=1;fillColor=none;fontFamily=Verdana;fontSize=12" parent="1" vertex="1">
          <mxGeometry x="540" y="600" width="170" height="55" as="geometry" />
        </mxCell>
        <mxCell id="gcUvP2jghbVTYusqyTfN-54" value="+ numberOfSeats: int" style="text;html=1;strokeColor=none;fillColor=none;align=left;verticalAlign=top;spacingLeft=4;spacingRight=4;whiteSpace=wrap;overflow=hidden;rotatable=0;points=[[0,0.5],[1,0.5]];portConstraint=eastwest;" parent="gcUvP2jghbVTYusqyTfN-53" vertex="1">
          <mxGeometry y="26" width="170" height="26" as="geometry" />
        </mxCell>
        <mxCell id="gcUvP2jghbVTYusqyTfN-56" value="Office" style="swimlane;html=1;fontStyle=1;align=center;verticalAlign=top;childLayout=stackLayout;horizontal=1;startSize=26;horizontalStack=0;resizeParent=1;resizeLast=0;collapsible=1;marginBottom=0;swimlaneFillColor=#ffffff;rounded=0;shadow=0;comic=0;labelBackgroundColor=none;strokeWidth=1;fillColor=none;fontFamily=Verdana;fontSize=12" parent="1" vertex="1">
          <mxGeometry x="730" y="600" width="170" height="55" as="geometry" />
        </mxCell>
        <mxCell id="gcUvP2jghbVTYusqyTfN-57" value="+ numberOfOfficeChairs: int" style="text;html=1;strokeColor=none;fillColor=none;align=left;verticalAlign=top;spacingLeft=4;spacingRight=4;whiteSpace=wrap;overflow=hidden;rotatable=0;points=[[0,0.5],[1,0.5]];portConstraint=eastwest;" parent="gcUvP2jghbVTYusqyTfN-56" vertex="1">
          <mxGeometry y="26" width="170" height="26" as="geometry" />
        </mxCell>
        <mxCell id="gcUvP2jghbVTYusqyTfN-59" value="Extends" style="endArrow=block;endSize=16;endFill=0;html=1;rounded=0;edgeStyle=elbowEdgeStyle;elbow=vertical;" parent="1" source="gcUvP2jghbVTYusqyTfN-56" target="gcUvP2jghbVTYusqyTfN-50" edge="1">
          <mxGeometry width="160" relative="1" as="geometry">
            <mxPoint x="645" y="440" as="sourcePoint" />
            <mxPoint x="805" y="440" as="targetPoint" />
          </mxGeometry>
        </mxCell>
        <mxCell id="gcUvP2jghbVTYusqyTfN-61" value="Extends" style="endArrow=block;endSize=16;endFill=0;html=1;rounded=0;edgeStyle=elbowEdgeStyle;elbow=vertical;" parent="1" source="gcUvP2jghbVTYusqyTfN-53" target="gcUvP2jghbVTYusqyTfN-50" edge="1">
          <mxGeometry width="160" relative="1" as="geometry">
            <mxPoint x="645" y="440" as="sourcePoint" />
            <mxPoint x="805" y="440" as="targetPoint" />
          </mxGeometry>
        </mxCell>
        <mxCell id="gcUvP2jghbVTYusqyTfN-62" value="" style="endArrow=diamondThin;endFill=0;endSize=24;html=1;rounded=0;edgeStyle=elbowEdgeStyle;elbow=vertical;entryX=0.5;entryY=1;entryDx=0;entryDy=0;exitX=0.5;exitY=0;exitDx=0;exitDy=0;" parent="1" source="gcUvP2jghbVTYusqyTfN-50" target="gcUvP2jghbVTYusqyTfN-43" edge="1">
          <mxGeometry width="160" relative="1" as="geometry">
            <mxPoint x="645" y="400" as="sourcePoint" />
            <mxPoint x="805" y="400" as="targetPoint" />
            <Array as="points">
              <mxPoint x="710" y="390" />
            </Array>
          </mxGeometry>
        </mxCell>
        <mxCell id="gcUvP2jghbVTYusqyTfN-109" value="1" style="edgeLabel;html=1;align=center;verticalAlign=middle;resizable=0;points=[];" parent="gcUvP2jghbVTYusqyTfN-62" vertex="1" connectable="0">
          <mxGeometry x="0.7397" relative="1" as="geometry">
            <mxPoint x="5" y="26" as="offset" />
          </mxGeometry>
        </mxCell>
        <mxCell id="gcUvP2jghbVTYusqyTfN-110" value="1 ... n" style="edgeLabel;html=1;align=center;verticalAlign=middle;resizable=0;points=[];" parent="gcUvP2jghbVTYusqyTfN-62" vertex="1" connectable="0">
          <mxGeometry x="-0.6438" relative="1" as="geometry">
            <mxPoint x="15" as="offset" />
          </mxGeometry>
        </mxCell>
        <mxCell id="gcUvP2jghbVTYusqyTfN-68" value="Employee" style="swimlane;html=1;fontStyle=1;align=center;verticalAlign=top;childLayout=stackLayout;horizontal=1;startSize=26;horizontalStack=0;resizeParent=1;resizeLast=0;collapsible=1;marginBottom=0;swimlaneFillColor=#ffffff;rounded=0;shadow=0;comic=0;labelBackgroundColor=none;strokeWidth=1;fillColor=none;fontFamily=Verdana;fontSize=12" parent="1" vertex="1">
          <mxGeometry x="300" y="40" width="205" height="167" as="geometry" />
        </mxCell>
        <mxCell id="gcUvP2jghbVTYusqyTfN-69" value="# employeeID: int" style="text;html=1;strokeColor=none;fillColor=none;align=left;verticalAlign=top;spacingLeft=4;spacingRight=4;whiteSpace=wrap;overflow=hidden;rotatable=0;points=[[0,0.5],[1,0.5]];portConstraint=eastwest;" parent="gcUvP2jghbVTYusqyTfN-68" vertex="1">
          <mxGeometry y="26" width="205" height="26" as="geometry" />
        </mxCell>
        <mxCell id="gcUvP2jghbVTYusqyTfN-74" value="+ name: String" style="text;html=1;strokeColor=none;fillColor=none;align=left;verticalAlign=top;spacingLeft=4;spacingRight=4;whiteSpace=wrap;overflow=hidden;rotatable=0;points=[[0,0.5],[1,0.5]];portConstraint=eastwest;" parent="gcUvP2jghbVTYusqyTfN-68" vertex="1">
          <mxGeometry y="52" width="205" height="26" as="geometry" />
        </mxCell>
        <mxCell id="gcUvP2jghbVTYusqyTfN-75" value="- monthlySalary: Double" style="text;html=1;strokeColor=none;fillColor=none;align=left;verticalAlign=top;spacingLeft=4;spacingRight=4;whiteSpace=wrap;overflow=hidden;rotatable=0;points=[[0,0.5],[1,0.5]];portConstraint=eastwest;" parent="gcUvP2jghbVTYusqyTfN-68" vertex="1">
          <mxGeometry y="78" width="205" height="26" as="geometry" />
        </mxCell>
        <mxCell id="gcUvP2jghbVTYusqyTfN-70" value="" style="line;html=1;strokeWidth=1;fillColor=none;align=left;verticalAlign=middle;spacingTop=-1;spacingLeft=3;spacingRight=3;rotatable=0;labelPosition=right;points=[];portConstraint=eastwest;" parent="gcUvP2jghbVTYusqyTfN-68" vertex="1">
          <mxGeometry y="104" width="205" height="8" as="geometry" />
        </mxCell>
        <mxCell id="gcUvP2jghbVTYusqyTfN-71" value="+ fileTaxes()" style="text;html=1;strokeColor=none;fillColor=none;align=left;verticalAlign=top;spacingLeft=4;spacingRight=4;whiteSpace=wrap;overflow=hidden;rotatable=0;points=[[0,0.5],[1,0.5]];portConstraint=eastwest;" parent="gcUvP2jghbVTYusqyTfN-68" vertex="1">
          <mxGeometry y="112" width="205" height="26" as="geometry" />
        </mxCell>
        <mxCell id="gcUvP2jghbVTYusqyTfN-72" value="+ work()" style="text;html=1;strokeColor=none;fillColor=none;align=left;verticalAlign=top;spacingLeft=4;spacingRight=4;whiteSpace=wrap;overflow=hidden;rotatable=0;points=[[0,0.5],[1,0.5]];portConstraint=eastwest;" parent="gcUvP2jghbVTYusqyTfN-68" vertex="1">
          <mxGeometry y="138" width="205" height="26" as="geometry" />
        </mxCell>
        <mxCell id="gcUvP2jghbVTYusqyTfN-77" value="Administrative Employee" style="swimlane;html=1;fontStyle=1;align=center;verticalAlign=top;childLayout=stackLayout;horizontal=1;startSize=26;horizontalStack=0;resizeParent=1;resizeLast=0;collapsible=1;marginBottom=0;swimlaneFillColor=#ffffff;rounded=0;shadow=0;comic=0;labelBackgroundColor=none;strokeWidth=1;fillColor=none;fontFamily=Verdana;fontSize=12" parent="1" vertex="1">
          <mxGeometry x="415" y="370" width="200" height="60" as="geometry" />
        </mxCell>
        <mxCell id="gcUvP2jghbVTYusqyTfN-79" value="+ yearsOfExperience: Double" style="text;html=1;strokeColor=none;fillColor=none;align=left;verticalAlign=top;spacingLeft=4;spacingRight=4;whiteSpace=wrap;overflow=hidden;rotatable=0;points=[[0,0.5],[1,0.5]];portConstraint=eastwest;" parent="gcUvP2jghbVTYusqyTfN-77" vertex="1">
          <mxGeometry y="26" width="200" height="26" as="geometry" />
        </mxCell>
        <mxCell id="gcUvP2jghbVTYusqyTfN-84" value="Professor" style="swimlane;html=1;fontStyle=1;align=center;verticalAlign=top;childLayout=stackLayout;horizontal=1;startSize=26;horizontalStack=0;resizeParent=1;resizeLast=0;collapsible=1;marginBottom=0;swimlaneFillColor=#ffffff;rounded=0;shadow=0;comic=0;labelBackgroundColor=none;strokeWidth=1;fillColor=none;fontFamily=Verdana;fontSize=12" parent="1" vertex="1">
          <mxGeometry x="175" y="370" width="200" height="86" as="geometry" />
        </mxCell>
        <mxCell id="gcUvP2jghbVTYusqyTfN-85" value="+ title: String" style="text;html=1;strokeColor=none;fillColor=none;align=left;verticalAlign=top;spacingLeft=4;spacingRight=4;whiteSpace=wrap;overflow=hidden;rotatable=0;points=[[0,0.5],[1,0.5]];portConstraint=eastwest;" parent="gcUvP2jghbVTYusqyTfN-84" vertex="1">
          <mxGeometry y="26" width="200" height="26" as="geometry" />
        </mxCell>
        <mxCell id="gcUvP2jghbVTYusqyTfN-104" value="" style="line;html=1;strokeWidth=1;fillColor=none;align=left;verticalAlign=middle;spacingTop=-1;spacingLeft=3;spacingRight=3;rotatable=0;labelPosition=right;points=[];portConstraint=eastwest;" parent="gcUvP2jghbVTYusqyTfN-84" vertex="1">
          <mxGeometry y="52" width="200" height="8" as="geometry" />
        </mxCell>
        <mxCell id="gcUvP2jghbVTYusqyTfN-105" value="+ takeLeave()" style="text;html=1;strokeColor=none;fillColor=none;align=left;verticalAlign=top;spacingLeft=4;spacingRight=4;whiteSpace=wrap;overflow=hidden;rotatable=0;points=[[0,0.5],[1,0.5]];portConstraint=eastwest;" parent="gcUvP2jghbVTYusqyTfN-84" vertex="1">
          <mxGeometry y="60" width="200" height="26" as="geometry" />
        </mxCell>
        <mxCell id="gcUvP2jghbVTYusqyTfN-86" value="Assistant Professor" style="swimlane;html=1;fontStyle=1;align=center;verticalAlign=top;childLayout=stackLayout;horizontal=1;startSize=26;horizontalStack=0;resizeParent=1;resizeLast=0;collapsible=1;marginBottom=0;swimlaneFillColor=#ffffff;rounded=0;shadow=0;comic=0;labelBackgroundColor=none;strokeWidth=1;fillColor=none;fontFamily=Verdana;fontSize=12" parent="1" vertex="1">
          <mxGeometry x="195" y="530" width="160" height="90" as="geometry" />
        </mxCell>
        <mxCell id="gcUvP2jghbVTYusqyTfN-103" value="+ minCourses: int" style="text;html=1;strokeColor=none;fillColor=none;align=left;verticalAlign=top;spacingLeft=4;spacingRight=4;whiteSpace=wrap;overflow=hidden;rotatable=0;points=[[0,0.5],[1,0.5]];portConstraint=eastwest;" parent="gcUvP2jghbVTYusqyTfN-86" vertex="1">
          <mxGeometry y="26" width="160" height="26" as="geometry" />
        </mxCell>
        <mxCell id="gcUvP2jghbVTYusqyTfN-99" value="" style="line;html=1;strokeWidth=1;fillColor=none;align=left;verticalAlign=middle;spacingTop=-1;spacingLeft=3;spacingRight=3;rotatable=0;labelPosition=right;points=[];portConstraint=eastwest;" parent="gcUvP2jghbVTYusqyTfN-86" vertex="1">
          <mxGeometry y="52" width="160" height="8" as="geometry" />
        </mxCell>
        <mxCell id="gcUvP2jghbVTYusqyTfN-101" value="+ takeLeave()" style="text;html=1;strokeColor=none;fillColor=none;align=left;verticalAlign=top;spacingLeft=4;spacingRight=4;whiteSpace=wrap;overflow=hidden;rotatable=0;points=[[0,0.5],[1,0.5]];portConstraint=eastwest;" parent="gcUvP2jghbVTYusqyTfN-86" vertex="1">
          <mxGeometry y="60" width="160" height="26" as="geometry" />
        </mxCell>
        <mxCell id="gcUvP2jghbVTYusqyTfN-88" value="Full Professor" style="swimlane;html=1;fontStyle=1;align=center;verticalAlign=top;childLayout=stackLayout;horizontal=1;startSize=26;horizontalStack=0;resizeParent=1;resizeLast=0;collapsible=1;marginBottom=0;swimlaneFillColor=#ffffff;rounded=0;shadow=0;comic=0;labelBackgroundColor=none;strokeWidth=1;fillColor=none;fontFamily=Verdana;fontSize=12" parent="1" vertex="1">
          <mxGeometry x="25" y="530" width="160" height="60" as="geometry" />
        </mxCell>
        <mxCell id="gcUvP2jghbVTYusqyTfN-90" value="Associate Professor" style="swimlane;html=1;fontStyle=1;align=center;verticalAlign=top;childLayout=stackLayout;horizontal=1;startSize=26;horizontalStack=0;resizeParent=1;resizeLast=0;collapsible=1;marginBottom=0;swimlaneFillColor=#ffffff;rounded=0;shadow=0;comic=0;labelBackgroundColor=none;strokeWidth=1;fillColor=none;fontFamily=Verdana;fontSize=12" parent="1" vertex="1">
          <mxGeometry x="365" y="530" width="160" height="60" as="geometry" />
        </mxCell>
        <mxCell id="gcUvP2jghbVTYusqyTfN-92" value="Extends" style="endArrow=block;endSize=16;endFill=0;html=1;rounded=0;edgeStyle=elbowEdgeStyle;elbow=vertical;" parent="1" source="gcUvP2jghbVTYusqyTfN-77" target="gcUvP2jghbVTYusqyTfN-68" edge="1">
          <mxGeometry width="160" relative="1" as="geometry">
            <mxPoint x="645" y="400" as="sourcePoint" />
            <mxPoint x="805" y="400" as="targetPoint" />
          </mxGeometry>
        </mxCell>
        <mxCell id="gcUvP2jghbVTYusqyTfN-93" value="Extends" style="endArrow=block;endSize=16;endFill=0;html=1;rounded=0;edgeStyle=elbowEdgeStyle;elbow=vertical;" parent="1" source="gcUvP2jghbVTYusqyTfN-84" target="gcUvP2jghbVTYusqyTfN-68" edge="1">
          <mxGeometry width="160" relative="1" as="geometry">
            <mxPoint x="645" y="400" as="sourcePoint" />
            <mxPoint x="805" y="400" as="targetPoint" />
          </mxGeometry>
        </mxCell>
        <mxCell id="gcUvP2jghbVTYusqyTfN-94" value="" style="endArrow=block;endSize=16;endFill=0;html=1;rounded=0;edgeStyle=elbowEdgeStyle;elbow=vertical;" parent="1" source="gcUvP2jghbVTYusqyTfN-86" target="gcUvP2jghbVTYusqyTfN-84" edge="1">
          <mxGeometry width="160" relative="1" as="geometry">
            <mxPoint x="245" y="400" as="sourcePoint" />
            <mxPoint x="405" y="400" as="targetPoint" />
          </mxGeometry>
        </mxCell>
        <mxCell id="gcUvP2jghbVTYusqyTfN-95" value="Extends" style="endArrow=block;endSize=16;endFill=0;html=1;rounded=0;edgeStyle=elbowEdgeStyle;elbow=vertical;" parent="1" source="gcUvP2jghbVTYusqyTfN-90" target="gcUvP2jghbVTYusqyTfN-84" edge="1">
          <mxGeometry width="160" relative="1" as="geometry">
            <mxPoint x="245" y="400" as="sourcePoint" />
            <mxPoint x="285" y="510" as="targetPoint" />
          </mxGeometry>
        </mxCell>
        <mxCell id="gcUvP2jghbVTYusqyTfN-96" value="Extends" style="endArrow=block;endSize=16;endFill=0;html=1;rounded=0;edgeStyle=elbowEdgeStyle;elbow=vertical;" parent="1" source="gcUvP2jghbVTYusqyTfN-88" target="gcUvP2jghbVTYusqyTfN-84" edge="1">
          <mxGeometry width="160" relative="1" as="geometry">
            <mxPoint x="245" y="400" as="sourcePoint" />
            <mxPoint x="405" y="400" as="targetPoint" />
          </mxGeometry>
        </mxCell>
        <mxCell id="gcUvP2jghbVTYusqyTfN-113" value="employs" style="html=1;verticalAlign=bottom;endArrow=block;rounded=0;edgeStyle=elbowEdgeStyle;elbow=vertical;" parent="1" source="78961159f06e98e8-17" target="gcUvP2jghbVTYusqyTfN-68" edge="1">
          <mxGeometry width="80" relative="1" as="geometry">
            <mxPoint x="485" y="400" as="sourcePoint" />
            <mxPoint x="565" y="400" as="targetPoint" />
          </mxGeometry>
        </mxCell>
        <mxCell id="gcUvP2jghbVTYusqyTfN-114" value="1" style="edgeLabel;html=1;align=center;verticalAlign=middle;resizable=0;points=[];" parent="gcUvP2jghbVTYusqyTfN-113" vertex="1" connectable="0">
          <mxGeometry x="-0.9" y="-1" relative="1" as="geometry">
            <mxPoint y="-9" as="offset" />
          </mxGeometry>
        </mxCell>
        <mxCell id="gcUvP2jghbVTYusqyTfN-115" value="1 ... *" style="edgeLabel;html=1;align=center;verticalAlign=middle;resizable=0;points=[];" parent="gcUvP2jghbVTYusqyTfN-113" vertex="1" connectable="0">
          <mxGeometry x="0.9" y="5" relative="1" as="geometry">
            <mxPoint x="6" y="-15" as="offset" />
          </mxGeometry>
        </mxCell>
        <mxCell id="qH-ci81VB0g3E8EAZ0NB-1" value="Department" style="swimlane;html=1;fontStyle=1;align=center;verticalAlign=top;childLayout=stackLayout;horizontal=1;startSize=26;horizontalStack=0;resizeParent=1;resizeLast=0;collapsible=1;marginBottom=0;swimlaneFillColor=#ffffff;rounded=0;shadow=0;comic=0;labelBackgroundColor=none;strokeWidth=1;fillColor=none;fontFamily=Verdana;fontSize=12" vertex="1" parent="1">
          <mxGeometry x="640" y="160" width="160" height="78" as="geometry" />
        </mxCell>
        <mxCell id="qH-ci81VB0g3E8EAZ0NB-2" value="+ name: String" style="text;html=1;strokeColor=none;fillColor=none;align=left;verticalAlign=top;spacingLeft=4;spacingRight=4;whiteSpace=wrap;overflow=hidden;rotatable=0;points=[[0,0.5],[1,0.5]];portConstraint=eastwest;" vertex="1" parent="qH-ci81VB0g3E8EAZ0NB-1">
          <mxGeometry y="26" width="160" height="26" as="geometry" />
        </mxCell>
        <mxCell id="qH-ci81VB0g3E8EAZ0NB-3" value="- funding: Double" style="text;html=1;strokeColor=none;fillColor=none;align=left;verticalAlign=top;spacingLeft=4;spacingRight=4;whiteSpace=wrap;overflow=hidden;rotatable=0;points=[[0,0.5],[1,0.5]];portConstraint=eastwest;" vertex="1" parent="qH-ci81VB0g3E8EAZ0NB-1">
          <mxGeometry y="52" width="160" height="26" as="geometry" />
        </mxCell>
        <mxCell id="qH-ci81VB0g3E8EAZ0NB-4" value="" style="endArrow=diamondThin;endFill=1;endSize=24;html=1;rounded=0;" edge="1" parent="1" source="gcUvP2jghbVTYusqyTfN-43" target="qH-ci81VB0g3E8EAZ0NB-1">
          <mxGeometry width="160" relative="1" as="geometry">
            <mxPoint x="640" y="220" as="sourcePoint" />
            <mxPoint x="800" y="220" as="targetPoint" />
          </mxGeometry>
        </mxCell>
        <mxCell id="qH-ci81VB0g3E8EAZ0NB-5" value="*" style="edgeLabel;html=1;align=center;verticalAlign=middle;resizable=0;points=[];" vertex="1" connectable="0" parent="qH-ci81VB0g3E8EAZ0NB-4">
          <mxGeometry x="0.5077" y="-3" relative="1" as="geometry">
            <mxPoint x="3" y="31" as="offset" />
          </mxGeometry>
        </mxCell>
        <mxCell id="qH-ci81VB0g3E8EAZ0NB-6" value="Address" style="swimlane;html=1;fontStyle=1;align=center;verticalAlign=top;childLayout=stackLayout;horizontal=1;startSize=26;horizontalStack=0;resizeParent=1;resizeLast=0;collapsible=1;marginBottom=0;swimlaneFillColor=#ffffff;rounded=0;shadow=0;comic=0;labelBackgroundColor=none;strokeWidth=1;fillColor=none;fontFamily=Verdana;fontSize=12" vertex="1" parent="1">
          <mxGeometry x="880" y="410" width="140" height="80" as="geometry" />
        </mxCell>
        <mxCell id="qH-ci81VB0g3E8EAZ0NB-7" value="+ city: String" style="text;html=1;strokeColor=none;fillColor=none;align=left;verticalAlign=top;spacingLeft=4;spacingRight=4;whiteSpace=wrap;overflow=hidden;rotatable=0;points=[[0,0.5],[1,0.5]];portConstraint=eastwest;" vertex="1" parent="qH-ci81VB0g3E8EAZ0NB-6">
          <mxGeometry y="26" width="140" height="26" as="geometry" />
        </mxCell>
        <mxCell id="qH-ci81VB0g3E8EAZ0NB-8" value="+ street: String" style="text;html=1;strokeColor=none;fillColor=none;align=left;verticalAlign=top;spacingLeft=4;spacingRight=4;whiteSpace=wrap;overflow=hidden;rotatable=0;points=[[0,0.5],[1,0.5]];portConstraint=eastwest;" vertex="1" parent="qH-ci81VB0g3E8EAZ0NB-6">
          <mxGeometry y="52" width="140" height="26" as="geometry" />
        </mxCell>
        <mxCell id="qH-ci81VB0g3E8EAZ0NB-11" value="" style="endArrow=none;html=1;edgeStyle=orthogonalEdgeStyle;rounded=0;" edge="1" parent="1" source="gcUvP2jghbVTYusqyTfN-50" target="qH-ci81VB0g3E8EAZ0NB-6">
          <mxGeometry relative="1" as="geometry">
            <mxPoint x="890" y="510" as="sourcePoint" />
            <mxPoint x="1050" y="510" as="targetPoint" />
          </mxGeometry>
        </mxCell>
        <mxCell id="qH-ci81VB0g3E8EAZ0NB-12" value="1" style="edgeLabel;resizable=0;html=1;align=left;verticalAlign=bottom;" connectable="0" vertex="1" parent="qH-ci81VB0g3E8EAZ0NB-11">
          <mxGeometry x="-1" relative="1" as="geometry" />
        </mxCell>
        <mxCell id="qH-ci81VB0g3E8EAZ0NB-13" value="1" style="edgeLabel;resizable=0;html=1;align=right;verticalAlign=bottom;" connectable="0" vertex="1" parent="qH-ci81VB0g3E8EAZ0NB-11">
          <mxGeometry x="1" relative="1" as="geometry" />
        </mxCell>
        <mxCell id="qH-ci81VB0g3E8EAZ0NB-17" value="Department" style="swimlane;html=1;fontStyle=1;align=center;verticalAlign=top;childLayout=stackLayout;horizontal=1;startSize=26;horizontalStack=0;resizeParent=1;resizeLast=0;collapsible=1;marginBottom=0;swimlaneFillColor=#ffffff;rounded=0;shadow=0;comic=0;labelBackgroundColor=none;strokeWidth=1;fillColor=none;fontFamily=Verdana;fontSize=12" vertex="1" parent="1">
          <mxGeometry x="830" y="290" width="160" height="78" as="geometry" />
        </mxCell>
        <mxCell id="qH-ci81VB0g3E8EAZ0NB-18" value="+ name: String" style="text;html=1;strokeColor=none;fillColor=none;align=left;verticalAlign=top;spacingLeft=4;spacingRight=4;whiteSpace=wrap;overflow=hidden;rotatable=0;points=[[0,0.5],[1,0.5]];portConstraint=eastwest;" vertex="1" parent="qH-ci81VB0g3E8EAZ0NB-17">
          <mxGeometry y="26" width="160" height="26" as="geometry" />
        </mxCell>
        <mxCell id="qH-ci81VB0g3E8EAZ0NB-19" value="# studentLimit" style="text;html=1;strokeColor=none;fillColor=none;align=left;verticalAlign=top;spacingLeft=4;spacingRight=4;whiteSpace=wrap;overflow=hidden;rotatable=0;points=[[0,0.5],[1,0.5]];portConstraint=eastwest;" vertex="1" parent="qH-ci81VB0g3E8EAZ0NB-17">
          <mxGeometry y="52" width="160" height="26" as="geometry" />
        </mxCell>
        <mxCell id="qH-ci81VB0g3E8EAZ0NB-20" value="" style="endArrow=diamondThin;endFill=1;endSize=24;html=1;rounded=0;entryX=1;entryY=0.5;entryDx=0;entryDy=0;" edge="1" parent="1" source="qH-ci81VB0g3E8EAZ0NB-17" target="qH-ci81VB0g3E8EAZ0NB-2">
          <mxGeometry width="160" relative="1" as="geometry">
            <mxPoint x="570" y="340" as="sourcePoint" />
            <mxPoint x="730" y="340" as="targetPoint" />
            <Array as="points">
              <mxPoint x="910" y="199" />
            </Array>
          </mxGeometry>
        </mxCell>
        <mxCell id="qH-ci81VB0g3E8EAZ0NB-21" value="*" style="edgeLabel;html=1;align=center;verticalAlign=middle;resizable=0;points=[];" vertex="1" connectable="0" parent="qH-ci81VB0g3E8EAZ0NB-20">
          <mxGeometry x="-0.7711" relative="1" as="geometry">
            <mxPoint x="5" y="15" as="offset" />
          </mxGeometry>
        </mxCell>
      </root>
    </mxGraphModel>
  </diagram>
</mxfile>
